<svg width="335" height="72" viewBox="0 0 335 72" fill="none" xmlns="http://www.w3.org/2000/svg">
<rect x="2" y="2" width="331" height="68" fill="#976D34"/>
<path fill-rule="evenodd" clip-rule="evenodd" d="M118 33.2308C116.47 33.2308 115.231 34.4706 115.231 36C115.231 37.5294 116.47 38.7693 118 38.7693C119.529 38.7693 120.769 37.5294 120.769 36C120.769 34.4706 119.529 33.2308 118 33.2308ZM113.384 36C113.384 33.451 115.451 31.3846 118 31.3846C120.549 31.3846 122.615 33.451 122.615 36C122.615 38.549 120.549 40.6154 118 40.6154C115.451 40.6154 113.384 38.549 113.384 36Z" fill="#4D3719"/>
<path d="M128.853 30.7994L127.93 29.2006C127.421 28.3172 126.292 28.0154 125.408 28.5249L124.923 28.8055C123.077 29.8708 120.769 28.5388 120.769 26.4074V25.8462C120.769 24.8262 119.943 24 118.923 24H117.077C116.057 24 115.231 24.8262 115.231 25.8462V26.4074C115.231 28.5388 112.923 29.8717 111.077 28.8055L110.591 28.5249C109.708 28.0154 108.579 28.3172 108.069 29.2006L107.146 30.7994C106.637 31.6828 106.939 32.8117 107.822 33.3212L108.307 33.6018C110.154 34.668 110.154 37.332 108.307 38.3982L107.822 38.6788C106.939 39.1883 106.637 40.3172 107.146 41.2006L108.069 42.7994C108.579 43.6828 109.708 43.9846 110.591 43.4751L111.077 43.1945C112.923 42.1283 115.231 43.4612 115.231 45.5926V46.1538C115.231 47.1738 116.057 48 117.077 48H118.923C119.943 48 120.769 47.1738 120.769 46.1538V45.5926C120.769 43.4612 123.077 42.1283 124.923 43.1945L125.408 43.4751C126.292 43.9846 127.421 43.6828 127.93 42.7994L128.853 41.2006C129.363 40.3172 129.061 39.1883 128.178 38.6788L127.692 38.3982C125.846 37.332 125.846 34.668 127.692 33.6018L128.178 33.3212C129.061 32.8117 129.364 31.6828 128.853 30.7994Z" stroke="#4D3719" stroke-width="2" stroke-miterlimit="10" stroke-linecap="round" stroke-linejoin="round"/>
<path d="M145.498 43.28C144.364 43.28 143.264 43.14 142.198 42.86C141.131 42.58 140.264 42.2067 139.598 41.74L140.898 38.82C141.524 39.2333 142.251 39.5667 143.078 39.82C143.904 40.0733 144.718 40.2 145.518 40.2C147.038 40.2 147.798 39.82 147.798 39.06C147.798 38.66 147.578 38.3667 147.138 38.18C146.711 37.98 146.018 37.7733 145.058 37.56C144.004 37.3333 143.124 37.0933 142.418 36.84C141.711 36.5733 141.104 36.1533 140.598 35.58C140.091 35.0067 139.838 34.2333 139.838 33.26C139.838 32.4067 140.071 31.64 140.538 30.96C141.004 30.2667 141.698 29.72 142.618 29.32C143.551 28.92 144.691 28.72 146.038 28.72C146.958 28.72 147.864 28.8267 148.758 29.04C149.651 29.24 150.438 29.54 151.118 29.94L149.898 32.88C148.564 32.16 147.271 31.8 146.018 31.8C145.231 31.8 144.658 31.92 144.298 32.16C143.938 32.3867 143.758 32.6867 143.758 33.06C143.758 33.4333 143.971 33.7133 144.398 33.9C144.824 34.0867 145.511 34.28 146.458 34.48C147.524 34.7067 148.404 34.9533 149.098 35.22C149.804 35.4733 150.411 35.8867 150.918 36.46C151.438 37.02 151.698 37.7867 151.698 38.76C151.698 39.6 151.464 40.36 150.998 41.04C150.531 41.72 149.831 42.2667 148.898 42.68C147.964 43.08 146.831 43.28 145.498 43.28ZM164.427 37.6C164.427 37.6267 164.407 37.94 164.367 38.54H156.487C156.647 39.1 156.953 39.5333 157.407 39.84C157.873 40.1333 158.453 40.28 159.147 40.28C159.667 40.28 160.113 40.2067 160.487 40.06C160.873 39.9133 161.26 39.6733 161.647 39.34L163.647 41.42C162.593 42.5933 161.053 43.18 159.027 43.18C157.76 43.18 156.647 42.94 155.687 42.46C154.727 41.98 153.98 41.3133 153.447 40.46C152.927 39.6067 152.667 38.64 152.667 37.56C152.667 36.4933 152.92 35.54 153.427 34.7C153.947 33.8467 154.66 33.18 155.567 32.7C156.473 32.22 157.493 31.98 158.627 31.98C159.707 31.98 160.687 32.2067 161.567 32.66C162.447 33.1 163.14 33.7467 163.647 34.6C164.167 35.44 164.427 36.44 164.427 37.6ZM158.647 34.68C158.06 34.68 157.567 34.8467 157.167 35.18C156.78 35.5133 156.533 35.9667 156.427 36.54H160.867C160.76 35.9667 160.507 35.5133 160.107 35.18C159.72 34.8467 159.233 34.68 158.647 34.68ZM173.659 42.56C173.339 42.76 172.945 42.9133 172.479 43.02C172.025 43.1267 171.539 43.18 171.019 43.18C169.605 43.18 168.519 42.8333 167.759 42.14C166.999 41.4467 166.619 40.4133 166.619 39.04V35.4H165.039V32.56H166.619V29.74H170.419V32.56H172.899V35.4H170.419V39C170.419 39.3867 170.519 39.6933 170.719 39.92C170.932 40.1333 171.212 40.24 171.559 40.24C171.999 40.24 172.385 40.1267 172.719 39.9L173.659 42.56ZM182.389 42.56C182.069 42.76 181.676 42.9133 181.209 43.02C180.756 43.1267 180.269 43.18 179.749 43.18C178.336 43.18 177.249 42.8333 176.489 42.14C175.729 41.4467 175.349 40.4133 175.349 39.04V35.4H173.769V32.56H175.349V29.74H179.149V32.56H181.629V35.4H179.149V39C179.149 39.3867 179.249 39.6933 179.449 39.92C179.663 40.1333 179.943 40.24 180.289 40.24C180.729 40.24 181.116 40.1267 181.449 39.9L182.389 42.56ZM183.855 32.16H187.655V43H183.855V32.16ZM185.755 30.96C185.061 30.96 184.501 30.7667 184.075 30.38C183.648 29.9933 183.435 29.5133 183.435 28.94C183.435 28.3667 183.648 27.8867 184.075 27.5C184.501 27.1133 185.061 26.92 185.755 26.92C186.448 26.92 187.008 27.1067 187.435 27.48C187.861 27.84 188.075 28.3067 188.075 28.88C188.075 29.48 187.861 29.98 187.435 30.38C187.008 30.7667 186.448 30.96 185.755 30.96ZM197.184 31.98C198.531 31.98 199.611 32.38 200.424 33.18C201.251 33.98 201.664 35.1867 201.664 36.8V43H197.864V37.42C197.864 35.94 197.271 35.2 196.084 35.2C195.431 35.2 194.904 35.4133 194.504 35.84C194.117 36.2667 193.924 36.9067 193.924 37.76V43H190.124V32.16H193.744V33.34C194.171 32.9 194.677 32.5667 195.264 32.34C195.851 32.1 196.491 31.98 197.184 31.98ZM215.866 32.16V41.02C215.866 43.0333 215.319 44.54 214.226 45.54C213.133 46.5533 211.559 47.06 209.506 47.06C208.439 47.06 207.439 46.94 206.506 46.7C205.573 46.46 204.779 46.1067 204.126 45.64L205.506 42.98C205.946 43.34 206.499 43.62 207.166 43.82C207.846 44.0333 208.513 44.14 209.166 44.14C210.166 44.14 210.899 43.92 211.366 43.48C211.833 43.04 212.066 42.3867 212.066 41.52V41.16C211.333 42.0133 210.259 42.44 208.846 42.44C207.886 42.44 206.999 42.2267 206.186 41.8C205.373 41.36 204.726 40.7467 204.246 39.96C203.766 39.16 203.526 38.24 203.526 37.2C203.526 36.1733 203.766 35.2667 204.246 34.48C204.726 33.68 205.373 33.0667 206.186 32.64C206.999 32.2 207.886 31.98 208.846 31.98C210.393 31.98 211.526 32.48 212.246 33.48V32.16H215.866ZM209.746 39.42C210.426 39.42 210.986 39.2133 211.426 38.8C211.879 38.3867 212.106 37.8533 212.106 37.2C212.106 36.5467 211.886 36.02 211.446 35.62C211.006 35.2067 210.439 35 209.746 35C209.053 35 208.479 35.2067 208.026 35.62C207.586 36.02 207.366 36.5467 207.366 37.2C207.366 37.8533 207.593 38.3867 208.046 38.8C208.499 39.2133 209.066 39.42 209.746 39.42ZM222.248 43.18C221.341 43.18 220.448 43.08 219.568 42.88C218.688 42.6667 217.981 42.3933 217.448 42.06L218.588 39.46C219.081 39.7667 219.668 40.0133 220.348 40.2C221.028 40.3733 221.701 40.46 222.368 40.46C222.981 40.46 223.414 40.4 223.668 40.28C223.934 40.1467 224.068 39.96 224.068 39.72C224.068 39.48 223.908 39.3133 223.588 39.22C223.281 39.1133 222.788 39.0133 222.108 38.92C221.241 38.8133 220.501 38.6733 219.888 38.5C219.288 38.3267 218.768 38.0067 218.328 37.54C217.888 37.0733 217.668 36.42 217.668 35.58C217.668 34.8867 217.874 34.2733 218.288 33.74C218.701 33.1933 219.301 32.7667 220.088 32.46C220.888 32.14 221.841 31.98 222.948 31.98C223.734 31.98 224.514 32.06 225.288 32.22C226.061 32.38 226.708 32.6067 227.228 32.9L226.088 35.48C225.128 34.9467 224.088 34.68 222.968 34.68C222.368 34.68 221.928 34.7533 221.648 34.9C221.368 35.0333 221.228 35.2133 221.228 35.44C221.228 35.6933 221.381 35.8733 221.688 35.98C221.994 36.0733 222.501 36.1733 223.208 36.28C224.101 36.4133 224.841 36.5667 225.428 36.74C226.014 36.9133 226.521 37.2333 226.948 37.7C227.388 38.1533 227.608 38.7933 227.608 39.62C227.608 40.3 227.401 40.9133 226.988 41.46C226.574 41.9933 225.961 42.4133 225.148 42.72C224.348 43.0267 223.381 43.18 222.248 43.18Z" fill="#4D3719"/>
<rect x="2" y="2" width="331" height="68" stroke="#4D3719" stroke-width="4"/>
<path opacity="0.06" d="M4 51C4 51 70.4601 60.7143 168.315 60.7143C266.171 60.7143 331 51 331 51V68H4V51Z" fill="#4D3719"/>
<path opacity="0.07" d="M331 21C331 21 264.54 11.2857 166.685 11.2857C68.8292 11.2857 4 21 4 21L4 4L331 3.99997L331 21Z" fill="#4D3719"/>
<path d="M53 51.2727L2 54L2 49L53 51.2727Z" fill="#4D3719"/>
<path d="M149.273 61L152 70H147L149.273 61Z" fill="#4D3719"/>
<path d="M309.364 53L311 70H308L309.364 53Z" fill="#4D3719"/>
<path d="M258.727 10L256 1L261 1L258.727 10Z" fill="#4D3719"/>
<path d="M78.6364 18L77 1L80 1L78.6364 18Z" fill="#4D3719"/>
<path d="M30 21.3636L2 23L2 20L30 21.3636Z" fill="#4D3719"/>
<path d="M283 22.7273L334 20L334 25L283 22.7273Z" fill="#4D3719"/>
<path d="M306 52.6364L334 51L334 54L306 52.6364Z" fill="#4D3719"/>
</svg>
