<svg width="24" height="25" viewBox="0 0 24 25" fill="none" xmlns="http://www.w3.org/2000/svg">
<path d="M22.8154 17.7885H1.18269C0.784549 17.7885 0.461533 18.1115 0.461533 18.5096V23.3173C0.461533 23.7154 0.784549 24.0385 1.18269 24.0385H22.8154C23.2136 24.0385 23.5366 23.7154 23.5366 23.3173V18.5096C23.5366 18.1115 23.2136 17.7885 22.8154 17.7885ZM22.0943 22.5962H1.90384V19.2308H22.0943V22.5962Z" fill="white"/>
<path d="M22.8173 9.375H1.18269C0.784549 9.375 0.461533 9.69802 0.461533 10.0962V14.9038C0.461533 15.302 0.784549 15.625 1.18269 15.625H22.8173C23.2154 15.625 23.5385 15.302 23.5385 14.9038V10.0962C23.5385 9.69802 23.2154 9.375 22.8173 9.375ZM22.0961 14.1827H1.90384V10.8173H22.0961V14.1827Z" fill="white"/>
<path d="M1.18269 7.21154H22.8154C23.2136 7.21154 23.5366 6.88852 23.5366 6.49038V1.68269C23.5366 1.28456 23.2136 0.961538 22.8154 0.961538H1.18269C0.784549 0.961538 0.461533 1.28456 0.461533 1.68269V6.49038C0.461533 6.88852 0.784549 7.21154 1.18269 7.21154ZM1.90384 2.40385H22.0943V5.76923H1.90384V2.40385Z" fill="white"/>
</svg>
