<svg width="26" height="26" viewBox="0 0 26 26" fill="none" xmlns="http://www.w3.org/2000/svg">
<path fill-rule="evenodd" clip-rule="evenodd" d="M12.9998 10.2308C11.4704 10.2308 10.2305 11.4706 10.2305 13C10.2305 14.5294 11.4704 15.7693 12.9998 15.7693C14.5292 15.7693 15.769 14.5294 15.769 13C15.769 11.4706 14.5292 10.2308 12.9998 10.2308ZM8.38438 13C8.38438 10.451 10.4508 8.38464 12.9998 8.38464C15.5488 8.38464 17.6152 10.451 17.6152 13C17.6152 15.549 15.5488 17.6154 12.9998 17.6154C10.4508 17.6154 8.38438 15.549 8.38438 13Z" fill="#4D3719"/>
<path d="M23.8533 7.79938L22.9303 6.20062C22.4207 5.31723 21.2918 5.01538 20.4084 5.52492L19.9229 5.80554C18.0767 6.87077 15.769 5.53877 15.769 3.40738V2.84615C15.769 1.82615 14.9429 1 13.9229 1H12.0767C11.0567 1 10.2306 1.82615 10.2306 2.84615V3.40738C10.2306 5.53877 7.92288 6.87169 6.07672 5.80554L5.59118 5.52492C4.7078 5.01538 3.57888 5.31723 3.06934 6.20062L2.14626 7.79938C1.63672 8.68277 1.93857 9.81169 2.82195 10.3212L3.30749 10.6018C5.15365 11.668 5.15365 14.332 3.30749 15.3982L2.82195 15.6788C1.93857 16.1883 1.63672 17.3172 2.14626 18.2006L3.06934 19.7994C3.57888 20.6828 4.7078 20.9846 5.59118 20.4751L6.07672 20.1945C7.92288 19.1283 10.2306 20.4612 10.2306 22.5926V23.1538C10.2306 24.1738 11.0567 25 12.0767 25H13.9229C14.9429 25 15.769 24.1738 15.769 23.1538V22.5926C15.769 20.4612 18.0767 19.1283 19.9229 20.1945L20.4084 20.4751C21.2918 20.9846 22.4207 20.6828 22.9303 19.7994L23.8533 18.2006C24.3629 17.3172 24.061 16.1883 23.1776 15.6788L22.6921 15.3982C20.846 14.332 20.846 11.668 22.6921 10.6018L23.1776 10.3212C24.061 9.81169 24.3638 8.68277 23.8533 7.79938Z" stroke="#4D3719" stroke-width="2" stroke-miterlimit="10" stroke-linecap="round" stroke-linejoin="round"/>
</svg>
