<svg width="18" height="24" viewBox="0 0 18 24" fill="none" xmlns="http://www.w3.org/2000/svg">
<path d="M13.7917 6.25V5.29167C13.7917 2.64523 11.6464 0.5 9 0.5C6.35356 0.5 4.20833 2.64523 4.20833 5.29167V6.25H0.375V20.625C0.375 22.2134 1.66156 23.5 3.25 23.5H14.75C16.3384 23.5 17.625 22.2134 17.625 20.625V6.25H13.7917ZM6.125 5.29167C6.125 3.70395 7.41228 2.41667 9 2.41667C10.5877 2.41667 11.875 3.70395 11.875 5.29167V6.25H6.125V5.29167ZM15.7083 20.625C15.7083 21.1545 15.2795 21.5833 14.75 21.5833H3.25C2.72052 21.5833 2.29167 21.1545 2.29167 20.625V8.16667H15.7083V20.625Z" fill="#BA970A"/>
</svg>
