<svg width="25" height="24" viewBox="0 0 25 24" fill="none" xmlns="http://www.w3.org/2000/svg">
<path fill-rule="evenodd" clip-rule="evenodd" d="M2.37999 11.54C2.88809 11.54 3.29999 11.9519 3.29999 12.46V21.66H21.7V12.46C21.7 11.9519 22.1119 11.54 22.62 11.54C23.1281 11.54 23.54 11.9519 23.54 12.46V22.58C23.54 23.0881 23.1281 23.5 22.62 23.5H2.37999C1.87189 23.5 1.45999 23.0881 1.45999 22.58V12.46C1.45999 11.9519 1.87189 11.54 2.37999 11.54Z" fill="#635E5D"/>
<path fill-rule="evenodd" clip-rule="evenodd" d="M9.73999 11.54C10.2481 11.54 10.66 11.9519 10.66 12.46V22.58C10.66 23.0881 10.2481 23.5 9.73999 23.5C9.23189 23.5 8.81999 23.0881 8.81999 22.58V12.46C8.81999 11.9519 9.23189 11.54 9.73999 11.54Z" fill="#635E5D"/>
<path fill-rule="evenodd" clip-rule="evenodd" d="M3.37438 1.05759C3.51936 0.719325 3.85197 0.5 4.22 0.5H20.78C21.148 0.5 21.4806 0.719325 21.6256 1.05759L24.3856 7.49759C24.5074 7.78184 24.4783 8.10828 24.3081 8.36645C24.1378 8.62463 23.8492 8.78 23.54 8.78H1.46C1.15074 8.78 0.862183 8.62463 0.691943 8.36645C0.521702 8.10828 0.492563 7.78184 0.614383 7.49759L3.37438 1.05759ZM4.82664 2.34L2.85521 6.94H22.1448L20.1734 2.34H4.82664Z" fill="#635E5D"/>
<path fill-rule="evenodd" clip-rule="evenodd" d="M7.89999 7.86C7.89999 7.3519 8.31189 6.94 8.81999 6.94H16.18C16.6881 6.94 17.1 7.3519 17.1 7.86V9.7C17.1 12.2321 15.0321 14.3 12.5 14.3C9.96789 14.3 7.89999 12.2321 7.89999 9.7V7.86ZM9.73999 8.78V9.7C9.73999 11.2159 10.9841 12.46 12.5 12.46C14.0159 12.46 15.26 11.2159 15.26 9.7V8.78H9.73999Z" fill="#635E5D"/>
<path fill-rule="evenodd" clip-rule="evenodd" d="M0.539993 7.86C0.539993 7.3519 0.951891 6.94 1.45999 6.94H8.81999C9.3281 6.94 9.73999 7.3519 9.73999 7.86V9.7C9.73999 12.2321 7.6721 14.3 5.13999 14.3C2.60789 14.3 0.539993 12.2321 0.539993 9.7V7.86ZM2.37999 8.78V9.7C2.37999 11.2159 3.62409 12.46 5.13999 12.46C6.65589 12.46 7.89999 11.2159 7.89999 9.7V8.78H2.37999Z" fill="#635E5D"/>
<path fill-rule="evenodd" clip-rule="evenodd" d="M15.26 7.86C15.26 7.3519 15.6719 6.94 16.18 6.94H23.54C24.0481 6.94 24.46 7.3519 24.46 7.86V9.7C24.46 12.2321 22.3921 14.3 19.86 14.3C17.3279 14.3 15.26 12.2321 15.26 9.7V7.86ZM17.1 8.78V9.7C17.1 11.2159 18.3441 12.46 19.86 12.46C21.3759 12.46 22.62 11.2159 22.62 9.7V8.78H17.1Z" fill="#635E5D"/>
</svg>
