<svg width="25" height="24" viewBox="0 0 25 24" fill="none" xmlns="http://www.w3.org/2000/svg">
<path d="M19.6406 23.9341C19.4868 23.9347 19.3352 23.8974 19.1992 23.8257L12.5 20.3027L5.79962 23.8257C5.64346 23.9074 5.46758 23.9438 5.29182 23.9309C5.11606 23.918 4.94741 23.8562 4.80488 23.7525C4.66235 23.6489 4.55161 23.5075 4.48516 23.3442C4.4187 23.181 4.39917 23.0025 4.42876 22.8287L5.70882 15.3678L0.285922 10.0837C0.159458 9.96052 0.0699873 9.80441 0.0276305 9.63304C-0.0147264 9.46167 -0.00827842 9.28186 0.0462449 9.11396C0.100768 8.94606 0.201191 8.79677 0.336152 8.68297C0.471113 8.56918 0.635226 8.49543 0.809925 8.47006L8.30171 7.38169L11.6519 0.59299C11.73 0.43476 11.8509 0.301539 12.0008 0.208389C12.1506 0.115238 12.3236 0.0658722 12.5 0.0658722C12.6765 0.0658722 12.8495 0.115238 12.9993 0.208389C13.1492 0.301539 13.27 0.43476 13.3482 0.59299L16.6984 7.38169L24.1895 8.47006C24.3643 8.49533 24.5285 8.56901 24.6635 8.68277C24.7986 8.79652 24.8991 8.9458 24.9537 9.11372C25.0082 9.28163 25.0148 9.46148 24.9724 9.6329C24.9301 9.80432 24.8406 9.96047 24.7142 10.0837L19.2913 15.3678L20.5713 22.8287C20.5945 22.9645 20.5879 23.1036 20.5517 23.2365C20.5156 23.3693 20.4509 23.4927 20.3622 23.598C20.2734 23.7032 20.1627 23.7878 20.0379 23.8459C19.913 23.904 19.777 23.9341 19.6393 23.9341H19.6406ZM2.97845 10.0667L7.38298 14.3602C7.4925 14.467 7.5745 14.5987 7.62194 14.7441C7.66939 14.8895 7.68086 15.0443 7.65538 15.1951L6.61557 21.2574L12.0586 18.3971C12.1947 18.3253 12.3462 18.2878 12.5 18.2878C12.6539 18.2878 12.8054 18.3253 12.9414 18.3971L18.3858 21.2593L17.3447 15.1951C17.3188 15.044 17.33 14.8889 17.3774 14.7432C17.4247 14.5974 17.5068 14.4653 17.6165 14.3583L22.0216 10.0667L15.9348 9.18386C15.7831 9.16181 15.639 9.10322 15.515 9.01315C15.391 8.92307 15.2907 8.80421 15.2228 8.66679L12.5 3.15121L9.77788 8.66679C9.70993 8.80429 9.60956 8.9232 9.48543 9.01328C9.3613 9.10336 9.21712 9.1619 9.06533 9.18386L2.97845 10.0667Z" fill="#FFC064"/>
</svg>
